<?xml version="1.0" encoding="utf-8"?>
<!-- Generator: Adobe Illustrator 28.3.0, SVG Export Plug-In . SVG Version: 6.00 Build 0)  -->
<svg version="1.1" xmlns="http://www.w3.org/2000/svg" xmlns:xlink="http://www.w3.org/1999/xlink" x="0px" y="0px"
	 viewBox="0 0 1000 2000" style="enable-background:new 0 0 1000 2000;" xml:space="preserve">
<style type="text/css">
	.st0{fill:none;stroke:#000000;stroke-miterlimit:10;}
</style>
<g id="Layer_1">
</g>
<g id="download_asset">
	<g>
		<polygon class="st0" points="359.75,270 130.3,270 224.62,313.39 224.62,574.62 130.3,529.4 130.3,270 		"/>
		<polygon class="st0" points="359.75,270 359.75,519.51 224.62,519.51 224.62,313.39 130.3,270 		"/>
		<g>
			<path d="M425,527.39h-67.37v-1.83c6.08-0.42,10.32-1.22,12.71-2.39c4.24-2.07,6.36-4.94,6.36-8.6c0-2.18-0.96-5.1-2.87-8.76
				l-1.74-3.35l-9.84-18.8h-45.12l-5.33,10.99l-2.56,4.94c-3.08,5.84-4.61,10.44-4.61,13.78c0,1.97,0.56,3.8,1.69,5.5
				c1.13,1.7,2.65,3.08,4.56,4.14c2.67,1.43,6.08,2.28,10.25,2.55v1.83h-45.94v-1.83c3.62-0.16,6.8-0.85,9.54-2.07
				c2.73-1.22,5.4-3.19,8-5.89c2.19-2.18,4.32-4.98,6.41-8.4c2.08-3.43,4.84-8.56,8.25-15.41l37.53-75.12h5.84l44.6,83.72
				c3.35,6.32,6.01,10.83,8,13.54c1.98,2.71,4.13,4.75,6.46,6.13c1.64,0.96,3.52,1.69,5.64,2.19c2.12,0.51,5.3,0.94,9.54,1.31
				V527.39z M360.61,480.39l-21.53-41.26l-20.3,41.26H360.61z"/>
		</g>
	</g>
</g>
</svg>
