<?xml version="1.0" encoding="utf-8"?>
<!-- Generator: Adobe Illustrator 28.3.0, SVG Export Plug-In . SVG Version: 6.00 Build 0)  -->
<svg version="1.1" id="Layer_1" xmlns="http://www.w3.org/2000/svg" xmlns:xlink="http://www.w3.org/1999/xlink" x="0px" y="0px"
	 viewBox="0 0 1000 2000" style="enable-background:new 0 0 1000 2000;" xml:space="preserve">
<style type="text/css">
	.st0{fill:none;stroke:#00FF04;stroke-miterlimit:10;}
	.st1{fill:#00FF04;}
</style>
<g id="Layer_1_00000031180043537007589490000005175381325387670169_">
</g>
<g>
	<polygon class="st0" points="584.2,85.6 354.7,85.6 449,129 449,390.3 354.7,345 354.7,85.6 	"/>
	<polygon class="st0" points="584.2,85.6 584.2,335.1 449,335.1 449,129 354.7,85.6 	"/>
	<g>
		<path class="st1" d="M639,361.1h-67.4v-1.8c6.1-0.4,10.3-1.2,12.7-2.4c4.2-2.1,6.4-4.9,6.4-8.6c0-2.2-1-5.1-2.9-8.8l-1.7-3.4
			l-9.8-18.8h-45.1l-5.3,11l-2.6,4.9c-3.1,5.8-4.6,10.4-4.6,13.8c0,2,0.6,3.8,1.7,5.5s2.7,3.1,4.6,4.1c2.7,1.4,6.1,2.3,10.2,2.5v1.8
			h-45.9v-1.8c3.6-0.2,6.8-0.8,9.5-2.1c2.7-1.2,5.4-3.2,8-5.9c2.2-2.2,4.3-5,6.4-8.4c2.1-3.4,4.8-8.6,8.2-15.4l37.5-75.1h5.8
			l44.6,83.7c3.3,6.3,6,10.8,8,13.5c2,2.7,4.1,4.8,6.5,6.1c1.6,1,3.5,1.7,5.6,2.2c2.1,0.5,5.3,0.9,9.5,1.3L639,361.1L639,361.1z
			 M574.6,314.1l-21.5-41.3l-20.3,41.3H574.6z"/>
	</g>
	<polygon class="st1" points="633.2,54 633.2,96.1 615.6,96.1 639.4,132.1 662.3,96.9 646.3,96.1 645.5,54 	"/>
</g>
</svg>
