<?xml version="1.0" encoding="utf-8"?>
<!-- Generator: Adobe Illustrator 28.3.0, SVG Export Plug-In . SVG Version: 6.00 Build 0)  -->
<svg version="1.1" id="Layer_1" xmlns="http://www.w3.org/2000/svg" xmlns:xlink="http://www.w3.org/1999/xlink" x="0px" y="0px"
	 viewBox="0 0 1366 768" style="enable-background:new 0 0 1366 768;" xml:space="preserve">
<style type="text/css">
	.st0{fill:none;stroke:#00FF37;stroke-width:8;stroke-miterlimit:10;}
	.st1{fill:#00FF37;}
	.st2{fill:none;stroke:#00FF37;stroke-miterlimit:10;}
</style>
<g>
	<path class="st0" d="M584.02,260.5h233.47c3.6,0,6.52,2.92,6.52,6.52v201.47c0,3.6-2.92,6.52-6.52,6.52H584.02
		c-3.6,0-6.52-2.92-6.52-6.52V267.02C577.5,263.42,580.42,260.5,584.02,260.5z"/>
	<path class="st1" d="M453,224c135.11,2.94,125.48,31.75,124.55,32.49c3.72-0.48,243.32,0.01,243.32,0.01
		c1.21-24.78,67.49-31.12,114.59-32.5H453z"/>
	<path class="st1" d="M947.42,223.74c-3.8,0.05-7.8,0.14-11.96,0.26h11.98C947.43,223.91,947.42,223.83,947.42,223.74z"/>
	<path class="st1" d="M453,475c135.11,2.94,125.48,31.75,124.55,32.49c3.72-0.48,243.32,0.01,243.32,0.01
		c1.21-24.78,67.49-31.12,114.59-32.5H453z"/>
	<path class="st1" d="M948.44,474.73c-4.1,0.05-8.45,0.14-12.98,0.27h12.94C948.41,474.91,948.43,474.82,948.44,474.73z"/>
	<path class="st2" d="M453,224c0,0,144,103,118,136S453,475,453,475"/>
	<path class="st2" d="M948.14,224c0,0-144,103-118,136s118,115,118,115"/>
	<path class="st1" d="M561,237c-10.49,0-19,10.07-19,22.5c0,12.43,8.51,22.5,19,22.5s19-10.07,19-22.5
		C580,247.07,571.49,237,561,237z M560.5,271c-6.9,0-12.5-5.6-12.5-12.5s5.6-12.5,12.5-12.5s12.5,5.6,12.5,12.5S567.4,271,560.5,271
		z"/>
	<path class="st1" d="M562,442c-10.49,0-19,10.07-19,22.5c0,12.43,8.51,22.5,19,22.5s19-10.07,19-22.5
		C581,452.07,572.49,442,562,442z M561.5,476c-6.9,0-12.5-5.6-12.5-12.5s5.6-12.5,12.5-12.5s12.5,5.6,12.5,12.5S568.4,476,561.5,476
		z"/>
	<path class="st1" d="M840,442c-10.49,0-19,10.07-19,22.5c0,12.43,8.51,22.5,19,22.5s19-10.07,19-22.5
		C859,452.07,850.49,442,840,442z M839.5,476c-6.9,0-12.5-5.6-12.5-12.5s5.6-12.5,12.5-12.5s12.5,5.6,12.5,12.5S846.4,476,839.5,476
		z"/>
	<path class="st1" d="M867,402c-6.63,0-12,6.49-12,14.5c0,8.01,5.37,14.5,12,14.5s12-6.49,12-14.5C879,408.49,873.63,402,867,402z
		 M866.68,423.91c-4.36,0-7.89-3.61-7.89-8.06c0-4.45,3.53-8.06,7.89-8.06s7.89,3.61,7.89,8.06
		C874.58,420.3,871.04,423.91,866.68,423.91z"/>
	<path class="st1" d="M542,395c-6.63,0-12,6.49-12,14.5c0,8.01,5.37,14.5,12,14.5s12-6.49,12-14.5C554,401.49,548.63,395,542,395z
		 M541.68,416.91c-4.36,0-7.89-3.61-7.89-8.06c0-4.45,3.53-8.06,7.89-8.06s7.89,3.61,7.89,8.06
		C549.58,413.3,546.04,416.91,541.68,416.91z"/>
	<path class="st1" d="M539,466c-4.42,0-8,2.91-8,6.5c0,3.59,3.58,6.5,8,6.5s8-2.91,8-6.5C547,468.91,543.42,466,539,466z
		 M538.79,475.82c-2.91,0-5.26-1.62-5.26-3.61c0-1.99,2.36-3.61,5.26-3.61c2.91,0,5.26,1.62,5.26,3.61
		C544.05,474.21,541.7,475.82,538.79,475.82z"/>
	<path class="st1" d="M864,466c-4.42,0-8,2.91-8,6.5c0,3.59,3.58,6.5,8,6.5s8-2.91,8-6.5C872,468.91,868.42,466,864,466z
		 M863.79,475.82c-2.91,0-5.26-1.62-5.26-3.61c0-1.99,2.36-3.61,5.26-3.61c2.91,0,5.26,1.62,5.26,3.61
		C869.05,474.21,866.7,475.82,863.79,475.82z"/>
	<path class="st1" d="M840,234c-10.49,0-19,10.07-19,22.5c0,12.43,8.51,22.5,19,22.5s19-10.07,19-22.5
		C859,244.07,850.49,234,840,234z M839.5,268c-6.9,0-12.5-5.6-12.5-12.5s5.6-12.5,12.5-12.5s12.5,5.6,12.5,12.5S846.4,268,839.5,268
		z"/>
	<path class="st2" d="M524.61,281.68C538,303,547,325,549,350c1,20-7,40-21.43,55.15"/>
	<path class="st2" d="M509.97,268.82C536,317,532,376,508.54,424.06"/>
	<path class="st2" d="M483.63,246.92c9.22,16.34,15.9,34.26,20.37,52.45c7.51,30.55,8.22,62.71,0.7,93.33
		c-5.37,21.85-14.81,42.55-27.22,61.29"/>
	<path class="st2" d="M876.24,283.13c0,0-53.22,74.56-3.65,122.71"/>
	<path class="st2" d="M891.62,269.04c0,0-44.04,68.3,0,155.44"/>
	<path class="st2" d="M918.85,246C882,307,877,392,920.69,450.73"/>
	<line class="st2" x1="547" y1="422.68" x2="554" y2="444.09"/>
	<line class="st2" x1="534.24" y1="419.19" x2="476.14" y2="476.14"/>
	<line class="st2" x1="860.96" y1="427.03" x2="850.28" y2="445.58"/>
	<line class="st2" x1="875.7" y1="424.48" x2="926.32" y2="476.14"/>
</g>
</svg>
