<?xml version="1.0" encoding="utf-8"?>
<!-- Generator: Adobe Illustrator 28.3.0, SVG Export Plug-In . SVG Version: 6.00 Build 0)  -->
<svg version="1.1" id="Layer_1" xmlns="http://www.w3.org/2000/svg" xmlns:xlink="http://www.w3.org/1999/xlink" x="0px" y="0px"
	 viewBox="0 0 1366 768" style="enable-background:new 0 0 1366 768;" xml:space="preserve">
<style type="text/css">
	.st0{fill:none;stroke:#00FF37;stroke-width:8;stroke-miterlimit:10;}
	.st1{fill:#00FF37;}
	.st2{fill:none;stroke:#00FF37;stroke-miterlimit:10;}
</style>
<g>
	<path class="st0" d="M584.02,258.5h233.47c3.6,0,6.52,2.92,6.52,6.52v201.47c0,3.6-2.92,6.52-6.52,6.52H584.02
		c-3.6,0-6.52-2.92-6.52-6.52V265.02C577.5,261.42,580.42,258.5,584.02,258.5z"/>
	<path class="st1" d="M453,222c135.11,2.94,125.48,31.75,124.55,32.49c3.72-0.48,243.32,0.01,243.32,0.01
		c1.21-24.78,67.49-31.12,114.59-32.5H453z"/>
	<path class="st1" d="M947.42,221.74c-3.8,0.05-7.8,0.14-11.96,0.26h11.98C947.43,221.91,947.42,221.83,947.42,221.74z"/>
	<path class="st1" d="M453,473c135.11,2.94,125.48,31.75,124.55,32.49c3.72-0.48,243.32,0.01,243.32,0.01
		c1.21-24.78,67.49-31.12,114.59-32.5H453z"/>
	<path class="st1" d="M948.44,472.73c-4.1,0.05-8.45,0.14-12.98,0.27h12.94C948.41,472.91,948.43,472.82,948.44,472.73z"/>
	<path class="st2" d="M453,222c0,0,144,103,118,136S453,473,453,473"/>
	<path class="st2" d="M948.14,222c0,0-144,103-118,136s118,115,118,115"/>
	<path class="st1" d="M561,235c-10.49,0-19,10.07-19,22.5c0,12.43,8.51,22.5,19,22.5s19-10.07,19-22.5
		C580,245.07,571.49,235,561,235z M560.5,269c-6.9,0-12.5-5.6-12.5-12.5s5.6-12.5,12.5-12.5s12.5,5.6,12.5,12.5S567.4,269,560.5,269
		z"/>
	<path class="st1" d="M562,440c-10.49,0-19,10.07-19,22.5c0,12.43,8.51,22.5,19,22.5s19-10.07,19-22.5
		C581,450.07,572.49,440,562,440z M561.5,474c-6.9,0-12.5-5.6-12.5-12.5s5.6-12.5,12.5-12.5s12.5,5.6,12.5,12.5S568.4,474,561.5,474
		z"/>
	<path class="st1" d="M840,440c-10.49,0-19,10.07-19,22.5c0,12.43,8.51,22.5,19,22.5s19-10.07,19-22.5
		C859,450.07,850.49,440,840,440z M839.5,474c-6.9,0-12.5-5.6-12.5-12.5s5.6-12.5,12.5-12.5s12.5,5.6,12.5,12.5S846.4,474,839.5,474
		z"/>
	<path class="st1" d="M867,400c-6.63,0-12,6.49-12,14.5c0,8.01,5.37,14.5,12,14.5s12-6.49,12-14.5C879,406.49,873.63,400,867,400z
		 M866.68,421.91c-4.36,0-7.89-3.61-7.89-8.06c0-4.45,3.53-8.06,7.89-8.06s7.89,3.61,7.89,8.06
		C874.58,418.3,871.04,421.91,866.68,421.91z"/>
	<path class="st1" d="M542,393c-6.63,0-12,6.49-12,14.5c0,8.01,5.37,14.5,12,14.5s12-6.49,12-14.5C554,399.49,548.63,393,542,393z
		 M541.68,414.91c-4.36,0-7.89-3.61-7.89-8.06c0-4.45,3.53-8.06,7.89-8.06s7.89,3.61,7.89,8.06
		C549.58,411.3,546.04,414.91,541.68,414.91z"/>
	<path class="st1" d="M539,464c-4.42,0-8,2.91-8,6.5c0,3.59,3.58,6.5,8,6.5s8-2.91,8-6.5C547,466.91,543.42,464,539,464z
		 M538.79,473.82c-2.91,0-5.26-1.62-5.26-3.61c0-1.99,2.36-3.61,5.26-3.61c2.91,0,5.26,1.62,5.26,3.61
		C544.05,472.21,541.7,473.82,538.79,473.82z"/>
	<path class="st1" d="M864,464c-4.42,0-8,2.91-8,6.5c0,3.59,3.58,6.5,8,6.5s8-2.91,8-6.5C872,466.91,868.42,464,864,464z
		 M863.79,473.82c-2.91,0-5.26-1.62-5.26-3.61c0-1.99,2.36-3.61,5.26-3.61c2.91,0,5.26,1.62,5.26,3.61
		C869.05,472.21,866.7,473.82,863.79,473.82z"/>
	<path class="st1" d="M840,232c-10.49,0-19,10.07-19,22.5c0,12.43,8.51,22.5,19,22.5s19-10.07,19-22.5
		C859,242.07,850.49,232,840,232z M839.5,266c-6.9,0-12.5-5.6-12.5-12.5s5.6-12.5,12.5-12.5s12.5,5.6,12.5,12.5S846.4,266,839.5,266
		z"/>
	<path class="st2" d="M524.61,279.68C538,301,547,323,549,348c1,20-7,40-21.43,55.15"/>
	<path class="st2" d="M509.97,266.82C536,315,532,374,508.54,422.06"/>
	<path class="st2" d="M483.63,244.92c9.22,16.34,15.9,34.26,20.37,52.45c7.51,30.55,8.22,62.71,0.7,93.33
		c-5.37,21.85-14.81,42.55-27.22,61.29"/>
	<path class="st2" d="M876.24,281.13c0,0-53.22,74.56-3.65,122.71"/>
	<path class="st2" d="M891.62,267.04c0,0-44.04,68.3,0,155.44"/>
	<path class="st2" d="M918.85,244C882,305,877,390,920.69,448.73"/>
	<line class="st2" x1="547" y1="420.68" x2="554" y2="442.09"/>
	<line class="st2" x1="534.24" y1="417.19" x2="476.14" y2="474.14"/>
	<line class="st2" x1="860.96" y1="425.03" x2="850.28" y2="443.58"/>
	<line class="st2" x1="875.7" y1="422.48" x2="926.32" y2="474.14"/>
</g>
</svg>
